ply
format ascii 1.0
element vertex 500
property float x
property float y
property float z
property uchar red
property uchar green
property uchar blue
end_header
-1.299697 -0.963886 0.333576 255 0 0
-1.135997 -0.926764 0.267072 255 0 0
-1.343051 -0.467115 0.344120 255 0 0
-1.213880 -0.812552 0.203299 255 0 0
-1.282520 -1.107654 0.321134 255 0 0
-1.176320 -0.847171 0.307126 255 0 0
-1.050195 -1.024733 0.340832 255 0 0
-1.177224 -0.764152 0.261358 255 0 0
-1.122350 -0.676864 0.226006 255 0 0
-1.268956 -1.035922 0.365569 255 0 0
-1.074068 -1.054304 0.191804 255 0 0
-1.276026 -1.351237 0.300264 255 0 0
-1.287904 -0.860883 0.172455 255 0 0
-1.207981 -0.771502 0.269852 255 0 0
-1.120552 -0.845492 0.316456 255 0 0
-0.990436 -0.673326 0.262104 255 0 0
-1.284465 -1.241036 0.246351 255 0 0
-1.063267 -0.578461 0.260299 255 0 0
-1.081719 -0.828124 0.266911 255 0 0
-1.081270 -0.875548 0.352223 255 0 0
-1.272074 -0.561480 0.286306 255 0 0
-1.332829 -1.027590 0.344056 255 0 0
-1.117259 -0.946196 0.270930 255 0 0
-1.152400 -1.077479 0.207876 255 0 0
-1.289582 -0.869165 0.218812 255 0 0
-1.036288 -1.006213 0.306338 255 0 0
-1.250881 -0.909112 0.231996 255 0 0
-1.339397 -1.236866 0.251065 255 0 0
-1.061508 -1.226974 0.249453 255 0 0
-1.228238 -0.912248 0.391373 255 0 0
-1.026002 -1.105799 0.281397 255 0 0
-1.096219 -0.961675 0.280356 255 0 0
-1.352453 -0.855647 0.249445 255 0 0
-1.267915 -1.094181 0.262730 255 0 0
-1.133109 -0.728645 0.209794 255 0 0
-1.276149 -0.816129 0.208532 255 0 0
-1.272470 -0.993922 0.253613 255 0 0
-1.362627 -0.924663 0.271652 255 0 0
-1.364422 -1.090208 0.277705 255 0 0
-1.177901 -0.532013 0.202824 255 0 0
-1.281039 -1.013100 0.330170 255 0 0
-1.185378 -0.855049 0.256575 255 0 0
-1.305135 -1.071807 0.342481 255 0 0
-1.247499 -0.519870 0.276375 255 0 0
-1.164378 -0.903731 0.336928 255 0 0
-1.324973 -1.128718 0.215130 255 0 0
-1.222565 -0.778515 0.323594 255 0 0
-1.183930 -1.015828 0.383389 255 0 0
-1.157752 -0.726528 0.280352 255 0 0
-1.097407 -0.610125 0.343929 255 0 0
-1.242829 -0.510875 0.264773 255 0 0
-1.137093 -0.866097 0.218742 255 0 0
-1.138664 -1.060241 0.271751 255 0 0
-1.095288 -1.101710 0.212477 255 0 0
-1.402340 -1.869436 0.199778 0 255 0
-1.043061 -1.131991 0.267337 255 0 0
-1.202309 -0.958756 0.245565 255 0 0
-1.321409 -0.587854 0.337817 255 0 0
-1.351931 -1.633810 0.367380 255 0 0
-1.202070 -0.279803 0.154838 0 255 0
-1.151129 -0.889903 0.263025 255 0 0
-1.150264 -0.430979 0.336627 255 0 0
-1.309736 -1.053419 0.220053 255 0 0
-1.104748 -0.758824 0.286440 255 0 0
-1.183222 -0.978472 0.280863 255 0 0
-1.271206 -0.531282 0.313904 255 0 0
-1.094502 -0.518897 0.227735 255 0 0
-1.232800 -0.528139 0.308633 255 0 0
-1.364107 -0.856317 0.295804 255 0 0
-1.354285 -0.969998 0.241035 255 0 0
-1.150730 -0.901262 0.218303 255 0 0
-1.281466 -0.862941 0.294951 255 0 0
-1.288183 -0.667697 0.251453 255 0 0
-1.117323 -1.093335 0.216192 255 0 0
-1.268162 -0.775996 0.178372 255 0 0
-1.113666 -1.174325 0.210156 255 0 0
-1.110595 -1.096740 0.219782 255 0 0
-1.419403 -1.864944 0.216015 255 0 0
-1.241439 -0.915331 0.377108 255 0 0
-1.080016 -0.911474 0.211340 255 0 0
-1.281455 -0.706409 0.286795 255 0 0
-1.249646 -0.755345 0.324123 255 0 0
-1.278454 -0.818859 0.195109 255 0 0
-1.241336 -0.842695 0.275687 255 0 0
-1.292881 -1.047891 0.400846 0 255 0
-1.305863 -0.968077 0.205187 255 0 0
-1.220895 -0.669885 0.168473 255 0 0
-1.330816 -0.620201 0.160773 255 0 0
-1.094946 -0.636593 0.305858 255 0 0
-1.377990 -1.008514 0.287534 255 0 0
-1.012979 -0.730871 0.213461 255 0 0
-1.111583 -0.978686 0.175150 255 0 0
-1.406925 -0.664157 0.337377 255 0 0
-1.144357 -1.037185 0.277918 255 0 0
-1.212880 -0.899523 0.165830 255 0 0
-1.301160 -0.556944 0.322735 255 0 0
-1.039759 -1.019424 0.244024 255 0 0
-1.082258 -0.577588 0.276848 255 0 0
-1.293530 -0.925071 0.214316 255 0 0
-1.330561 -0.586095 0.352290 255 0 0
-1.366917 -1.111111 0.276982 255 0 0
-1.086736 -1.102657 0.299520 255 0 0
-1.340308 -1.208737 0.250250 255 0 0
-1.272598 -0.753286 0.263016 255 0 0
-1.287427 -0.950699 0.244351 255 0 0
-1.099034 -1.397584 0.281949 255 0 0
-1.092206 -1.238311 0.255334 255 0 0
-1.374478 -1.551230 0.307320 255 0 0
-1.265689 -0.983326 0.259269 255 0 0
-1.263439 -1.092750 0.253877 255 0 0
-1.320077 -0.536638 0.266091 255 0 0
-1.274665 -0.817640 0.323456 255 0 0
-1.215106 -0.493810 0.308147 255 0 0
-1.286168 -0.768370 0.257935 255 0 0
-1.390466 -0.586064 0.350412 255 0 0
-1.079223 -0.632093 0.297718 255 0 0
-1.324636 -1.319965 0.257832 255 0 0
-1.223405 -0.875318 0.294594 255 0 0
-1.266327 -0.936793 0.198436 255 0 0
-1.074065 -1.028903 0.270137 255 0 0
-1.291237 -0.968961 0.328206 255 0 0
-1.366581 -1.849738 0.314050 255 0 0
-1.385677 -1.851951 0.344994 255 0 0
-1.172115 -0.490736 0.360548 255 0 0
-1.328143 -1.022014 0.282807 255 0 0
-1.222863 -1.021938 0.261060 255 0 0
-1.209462 -0.977005 0.419976 0 255 0
-1.286148 -0.806866 0.352192 0 255 0
-1.488006 -0.861203 0.270690 255 0 0
-1.227541 -0.585910 0.248863 255 0 0
-1.323061 -1.402791 0.301870 255 0 0
-1.211822 -0.329866 0.268324 255 0 0
-1.324213 -1.392806 0.285541 255 0 0
-1.003428 -1.775726 0.278361 255 0 0
-1.345571 -0.893163 0.254843 255 0 0
-1.401270 -0.568634 0.346309 255 0 0
-1.275282 -0.813926 0.175669 255 0 0
-1.281507 -0.708395 0.190390 255 0 0
-1.270286 -0.563700 0.258429 255 0 0
-1.120728 -0.998992 0.393903 255 0 0
-1.308276 -0.624493 0.170029 255 0 0
-1.167726 -0.863623 0.207723 255 0 0
-1.274704 -0.815670 0.308749 255 0 0
-1.205274 -0.932068 0.253424 255 0 0
-1.236798 -0.998914 0.286915 255 0 0
-1.326921 -0.959719 0.324477 255 0 0
-1.027235 -1.416131 0.277302 255 0 0
-1.265244 -0.912374 0.162823 255 0 0
-1.267502 -0.778094 0.340964 0 255 0
-1.327286 -0.435633 0.341523 255 0 0
-1.033259 -1.049086 0.310465 255 0 0
-1.463384 -0.867228 0.241343 255 0 0
-1.454753 -0.652382 0.319092 255 0 0
-1.134807 -0.989548 0.314124 255 0 0
-1.373954 -1.050805 0.340145 255 0 0
-1.152230 -0.599194 0.371459 0 255 0
-1.239436 -0.488757 0.239641 255 0 0
-1.305724 -1.229825 0.237615 255 0 0
-1.266301 -0.632961 0.208478 255 0 0
-1.215382 -0.672835 0.213572 255 0 0
-1.102776 -0.930769 0.271324 255 0 0
-1.275613 -0.963152 0.362267 255 0 0
-1.332041 -0.516572 0.219804 255 0 0
-1.365529 -1.571259 0.356201 255 0 0
-1.153342 -1.039256 0.275197 255 0 0
-1.048345 -1.449167 0.281356 255 0 0
-1.017605 -0.995595 0.260620 255 0 0
-1.375180 -1.248934 0.268232 255 0 0
-1.155835 -0.926038 0.357301 255 0 0
-1.281684 -0.882956 0.187732 255 0 0
-1.336676 -1.269640 0.240806 255 0 0
-1.139234 -0.611401 0.251778 255 0 0
-1.264800 -0.767719 0.333824 255 0 0
-1.252460 -0.995086 0.238526 255 0 0
-1.193912 -0.530299 0.221876 255 0 0
-1.154728 -0.432896 0.303606 255 0 0
-0.975590 -1.844488 0.218108 255 0 0
-1.419506 -0.698460 0.280578 255 0 0
-0.923851 -0.796992 0.182931 255 0 0
-0.984696 -0.718599 0.205401 255 0 0
-1.071872 -1.085508 0.240582 255 0 0
-1.253045 -0.481082 0.313700 255 0 0
-1.287050 -1.146511 0.277377 255 0 0
-1.133338 -1.149280 0.186974 255 0 0
-1.101333 -0.796114 0.193640 255 0 0
-1.321334 -1.292431 0.282393 255 0 0
-1.087359 -0.870859 0.298793 255 0 0
-1.233747 -0.679545 0.158009 255 0 0
-0.972212 -1.355893 0.591179 0 255 0
-0.763650 -0.850556 0.253826 255 0 0
-1.391600 -1.537795 0.358768 255 0 0
-1.051974 -0.820418 0.543022 0 255 0
0.685081 0.701022 0.271453 0 255 0
-1.253064 -2.251842 0.580771 0 255 0
-1.240978 -0.435874 0.471669 0 255 0
-1.443271 -0.937322 0.642127 0 255 0
-0.659673 -1.051995 0.724969 0 255 0
-1.660794 -0.898975 0.369891 255 0 0
-1.416642 -1.322487 -0.102518 0 255 0
-1.037935 -1.196046 0.155788 0 255 0
-1.122928 -1.890623 0.383731 0 255 0
0.422015 -0.569852 -0.036072 0 255 0
-1.670345 -0.686142 0.010329 0 255 0
-1.558847 -0.681637 0.642195 0 255 0
-1.025326 -0.548784 0.385211 0 255 0
-1.505346 -0.699276 0.016887 0 255 0
-0.888722 0.556466 0.460900 0 255 0
-1.226028 -1.024065 0.055893 0 255 0
-1.093711 -0.984111 -0.120595 0 255 0
-0.889071 -1.309070 0.312674 255 0 0
-0.057808 0.051636 -0.777532 0 255 0
-1.389264 -0.208087 0.329369 0 255 0
-1.540520 -0.739731 0.074888 0 255 0
-0.990214 -1.389480 0.207036 0 255 0
-1.341824 -0.650623 0.122248 0 255 0
-1.517446 -1.592021 0.665153 0 255 0
-0.603834 -1.278694 0.264383 255 0 0
-0.850282 -1.767410 0.067533 0 255 0
-0.863985 -1.613036 0.391963 0 255 0
-1.197669 -1.492636 0.467314 0 255 0
-0.811630 -1.079784 -0.054677 0 255 0
-0.745961 -1.502054 0.345938 255 0 0
-1.218056 -1.005587 0.964753 0 255 0
-1.215874 -1.317580 0.086727 0 255 0
-1.656056 -0.805568 0.028777 0 255 0
-1.168551 -1.266292 -0.073659 0 255 0
-0.828821 -1.800920 0.164561 0 255 0
-0.909571 -1.942318 0.466361 0 255 0
-1.454902 -0.905892 0.170767 255 0 0
-1.300087 -0.808858 0.471452 0 255 0
-1.292469 -0.372216 0.020745 0 255 0
-1.018469 -1.651103 0.510865 0 255 0
-1.810108 -1.031170 0.478220 0 255 0
-0.902332 -1.912688 0.149815 0 255 0
-1.546586 -0.819791 0.242729 255 0 0
-1.087554 -1.136229 0.375727 0 255 0
-1.660287 -0.957657 0.498816 0 255 0
-1.474069 -1.710630 0.455317 0 255 0
-1.009654 -1.727473 0.021564 0 255 0
-1.256367 -2.120851 0.122527 0 255 0
-1.393095 -0.966123 0.108506 0 255 0
-1.052554 -1.186627 0.323683 255 0 0
-1.528870 -1.197918 -0.096616 0 255 0
0.650686 0.107437 -0.345883 0 255 0
-1.235545 -0.270375 0.398652 0 255 0
-1.594529 -0.795938 0.186189 255 0 0
-1.039814 -1.964876 -0.009033 0 255 0
-0.966622 -0.625614 0.331927 255 0 0
-1.449482 -1.627499 0.418339 0 255 0
-1.487225 -1.217605 0.368134 0 255 0
-1.709325 -0.695225 0.292474 255 0 0
-1.421778 -0.686287 0.229426 255 0 0
-1.105156 -0.911943 0.424065 0 255 0
-0.903908 -1.280595 -0.018603 0 255 0
-1.437204 -1.073863 0.338869 255 0 0
-1.080957 -1.750080 0.475644 0 255 0
-1.253841 -1.557061 0.254231 255 0 0
-1.153986 -0.390427 0.514725 0 255 0
-0.792769 -0.623862 0.331570 255 0 0
-0.577235 -1.002864 0.351788 255 0 0
-1.054502 -1.365775 0.378156 0 255 0
-0.688215 -1.091904 0.029260 0 255 0
-0.763589 -0.561194 0.033726 0 255 0
-1.233846 -1.648598 -0.088615 0 255 0
-1.480865 -1.355500 0.315502 255 0 0
-1.268865 -1.876409 0.481277 0 255 0
-1.115170 -0.943818 -0.016273 0 255 0
-0.817320 -1.061919 0.080921 0 255 0
-0.840418 -0.639210 0.233273 255 0 0
-0.843575 -1.084997 -0.049933 0 255 0
-1.216360 -1.226601 0.238974 255 0 0
-1.226930 -0.905425 0.125874 0 255 0
-1.081491 -0.301651 0.414896 0 255 0
-1.366466 -1.179362 0.569897 0 255 0
-1.196901 -1.536110 0.627521 0 255 0
-0.972262 -0.821522 0.341096 255 0 0
-1.294417 0.120192 0.117507 0 255 0
-1.610213 -1.332171 0.105510 0 255 0
-0.898008 -1.397756 0.219227 255 0 0
-1.401737 -0.756411 0.146301 0 255 0
-1.706671 -0.443876 0.594737 0 255 0
-0.925533 -1.758078 0.227796 0 255 0
-0.842997 -0.336374 0.342672 0 255 0
-0.971400 -1.634838 0.144624 0 255 0
-0.711014 -0.629134 -0.020088 0 255 0
-1.036141 -1.048419 -0.111557 0 255 0
-1.481752 -2.145250 0.107529 0 255 0
-1.161944 -1.669168 0.536616 0 255 0
-1.510296 -0.884060 0.340570 255 0 0
-0.745175 -1.256020 0.360176 0 255 0
-0.510256 -1.284806 0.092223 0 255 0
-0.959680 -1.191578 0.394056 0 255 0
-1.272317 -1.508111 0.067689 0 255 0
-1.365772 -0.517678 0.215480 255 0 0
-1.239738 -0.946086 0.542550 0 255 0
-0.902864 -1.168131 0.173766 255 0 0
-1.572382 -0.669473 0.335710 255 0 0
-1.338013 -0.419090 0.221780 0 255 0
-0.990787 -0.950357 0.099349 0 255 0
-1.682097 -0.771864 0.672552 0 255 0
-0.847913 -1.817344 -0.153098 0 255 0
0.962175 0.409716 0.612631 0 255 0
-1.349856 -0.448122 0.165506 0 255 0
-1.344540 -1.639899 0.240376 0 255 0
-1.093939 -0.308631 0.626275 0 255 0
-1.697731 -0.983389 0.351810 255 0 0
-1.126400 -0.566203 0.024063 0 255 0
-1.641728 -0.605010 0.006085 0 255 0
-1.099610 -0.406792 0.177473 0 255 0
-1.211319 -0.835059 0.086201 0 255 0
-0.819638 -1.747841 0.134126 0 255 0
-0.852572 0.604804 0.902005 0 255 0
-1.140642 -1.072407 0.543226 0 255 0
-1.179840 -0.474880 0.165895 0 255 0
-0.622821 -1.690096 0.735387 0 255 0
-1.043566 -0.834132 0.001564 0 255 0
-0.813747 -1.772156 0.127200 0 255 0
-0.997439 -0.675713 0.357039 0 255 0
-1.674052 -0.746443 0.311421 255 0 0
-1.279859 -1.889637 0.178255 0 255 0
-0.582304 -0.617868 0.190480 255 0 0
0.131230 -0.543146 -0.242053 0 255 0
-1.467117 -0.651408 0.246407 255 0 0
-1.505180 -1.011693 0.329371 255 0 0
-0.845914 -1.224963 0.681911 0 255 0
-0.953842 -0.559475 0.009171 0 255 0
-1.337118 -0.147348 0.238849 0 255 0
-1.273664 -0.416395 -0.007581 0 255 0
-0.322803 -0.177318 -0.329101 0 255 0
-0.827028 -0.502410 0.148409 0 255 0
-1.681626 -1.165763 0.179132 255 0 0
-1.908319 -0.725432 0.250751 255 0 0
-1.372487 -1.008355 0.061288 0 255 0
-1.714451 -0.331202 0.366931 0 255 0
-1.014562 -0.781186 -0.032395 0 255 0
-1.352668 -1.220067 0.523002 0 255 0
-1.282649 -1.659032 0.168556 0 255 0
-1.554587 -1.185791 0.434905 0 255 0
-1.237496 -0.669007 -0.051332 0 255 0
-0.946612 -1.796618 0.318821 255 0 0
-1.275423 -0.901618 -0.092841 0 255 0
-0.996660 -1.237428 0.300161 255 0 0
-1.139271 -0.719431 -0.209459 0 255 0
-0.918163 -0.926242 0.356247 255 0 0
-1.612178 -2.047093 0.259570 0 255 0
-0.899082 -1.991854 0.533795 0 255 0
-0.845829 -0.434865 -0.116552 0 255 0
-1.073032 0.210327 0.005997 0 255 0
-1.125571 -1.766916 0.387518 0 255 0
-1.437463 -1.849869 0.948494 0 255 0
-1.079050 -1.296870 0.342265 0 255 0
-1.421731 -0.879734 0.274157 255 0 0
-0.933696 -0.750492 0.533689 0 255 0
0.600417 -0.134803 -0.856461 0 255 0
-1.376807 -1.691620 0.297670 255 0 0
-1.032727 -0.701529 0.280574 255 0 0
-0.782251 -0.770218 0.009571 0 255 0
-1.725852 -1.037800 0.058758 0 255 0
-1.133055 -1.188468 0.328056 255 0 0
-1.447562 -1.933196 0.085557 0 255 0
-0.716095 -1.459728 0.200572 0 255 0
-0.059093 -0.832781 -0.875887 0 255 0
-1.521961 -0.811670 0.470113 0 255 0
-0.202838 -0.216906 0.729420 0 255 0
-1.617983 -0.147226 -0.204234 0 255 0
-1.200817 -1.095756 0.794728 0 255 0
-0.809627 -0.860890 0.398734 0 255 0
0.898562 -0.220278 -0.063115 0 255 0
-1.296260 -0.993337 0.093387 0 255 0
-1.821922 -1.291288 0.576161 0 255 0
-1.265888 -0.695283 0.380319 0 255 0
-0.896650 -0.964854 0.378898 255 0 0
-1.280999 -0.811496 -0.246029 0 255 0
-1.155828 -1.334602 0.210958 255 0 0
-1.199986 -0.982043 -0.048071 0 255 0
-1.314183 -1.193645 0.376508 0 255 0
-1.757148 -0.496239 0.156157 0 255 0
-1.282808 -1.351211 0.376256 0 255 0
-0.712306 0.045462 0.073671 0 255 0
-1.121129 -1.166911 0.351212 0 255 0
-0.757185 -0.850252 0.080372 0 255 0
-1.779198 -1.880399 0.450278 0 255 0
-1.003174 -1.390397 0.125025 0 255 0
0.010483 0.326292 -0.339807 0 255 0
-1.064137 -0.862264 0.182690 255 0 0
-0.989741 -1.213603 0.196935 255 0 0
-0.952798 -1.622259 0.311681 255 0 0
-0.993183 -0.873302 0.297194 255 0 0
0.732799 0.332120 -0.499887 0 255 0
-0.986325 -1.875545 0.709011 0 255 0
-1.517059 -1.878417 0.421176 0 255 0
-0.502254 0.690133 -0.307946 0 255 0
-1.139023 -1.214358 0.492024 0 255 0
-1.214038 -1.011506 0.113740 0 255 0
-0.972284 0.073499 0.226390 0 255 0
-1.140750 -0.736839 0.652229 0 255 0
-1.429993 -0.576433 0.005095 0 255 0
-0.907027 -0.525940 0.406290 0 255 0
-1.355520 -0.674395 0.748956 0 255 0
-1.174136 0.084013 -0.139245 0 255 0
-1.088338 -1.784445 0.447218 0 255 0
-1.303749 -0.917474 0.496937 0 255 0
-1.059881 -0.363794 0.406238 0 255 0
-1.385639 -2.035141 -0.103089 0 255 0
-1.358893 -1.499768 -0.150838 0 255 0
-1.273402 -0.754267 0.646920 0 255 0
-1.406888 -0.545034 0.201200 255 0 0
-1.685331 -1.068294 0.185738 255 0 0
-1.150293 -1.521382 0.579083 0 255 0
-1.152994 -0.362546 0.458041 0 255 0
-0.857375 -0.796894 0.528021 0 255 0
-1.300240 -1.095783 0.727844 0 255 0
-1.709208 -1.633207 0.381568 0 255 0
-0.164348 0.886654 0.926641 0 255 0
-1.519011 -1.093438 0.289972 255 0 0
-1.048188 -0.732039 0.318067 255 0 0
-1.292659 -1.921470 0.360995 0 255 0
-0.990820 -0.568341 0.529779 0 255 0
-0.956278 -1.440358 0.394664 0 255 0
-0.910443 -0.430768 -0.012377 0 255 0
-0.851093 -1.807659 0.173413 0 255 0
-0.732581 -0.951902 0.061062 0 255 0
-0.748614 -0.262014 0.438611 0 255 0
-0.961115 -0.958911 0.076748 0 255 0
-0.993463 -0.888871 -0.035574 0 255 0
-1.307765 -0.401897 0.205394 0 255 0
0.587937 0.366296 0.969496 0 255 0
-1.773774 -0.117602 0.386257 0 255 0
-1.049790 -1.076527 0.414239 0 255 0
-1.412993 -0.319319 -0.064185 0 255 0
-1.092327 -0.994288 -0.358582 0 255 0
-0.657409 -0.903778 0.428611 0 255 0
-1.656876 -1.225599 0.179681 255 0 0
-1.022806 -0.235333 0.166888 255 0 0
-1.222698 -0.965586 0.800908 0 255 0
-0.894888 -1.041026 0.365855 255 0 0
-0.890334 -1.571153 -0.191952 0 255 0
-0.776558 -1.273431 0.610551 0 255 0
-1.304565 -0.330901 -0.243975 0 255 0
-1.257763 -1.750164 0.624569 0 255 0
-0.385540 0.965339 -0.531219 0 255 0
-1.303519 -0.552930 0.509580 0 255 0
-1.338139 -0.804891 0.570698 0 255 0
-1.355501 -1.076249 0.186685 255 0 0
-1.194967 -1.366219 0.449846 0 255 0
-1.226554 -0.443363 0.214915 0 255 0
-1.490892 -1.086276 0.466379 0 255 0
-1.421595 -0.355450 0.341503 0 255 0
-1.274620 -1.413013 0.494120 0 255 0
-0.802269 -0.820451 0.244467 255 0 0
-0.856514 -0.977107 -0.040247 0 255 0
-1.373494 -0.902879 0.094491 0 255 0
0.283896 -0.352222 -0.841733 0 255 0
-1.216513 -0.830002 0.433821 0 255 0
-0.950167 -0.561063 -0.368620 0 255 0
-1.363857 -0.646086 0.410664 0 255 0
-1.281368 -1.364240 0.485118 0 255 0
-0.692423 -0.319389 0.061926 0 255 0
-1.080755 -0.674035 0.082803 0 255 0
-1.037447 -0.629900 0.482406 0 255 0
-0.992509 -1.446349 0.305408 255 0 0
-1.525723 -0.762661 0.063154 0 255 0
-1.039733 -0.870416 0.211573 255 0 0
-1.023000 -0.764589 0.198269 255 0 0
-0.864371 -0.585917 0.148272 255 0 0
-0.978065 -0.838018 0.311245 255 0 0
-0.998890 -1.048310 0.386174 255 0 0
-1.293541 -0.486086 0.502861 0 255 0
-1.158183 -1.185689 0.139017 0 255 0
-0.889095 -1.894103 0.208541 0 255 0
-1.151715 -1.132996 0.162317 255 0 0
-1.314063 -0.779223 0.008647 0 255 0
-1.106692 -0.630928 0.125415 0 255 0
-1.250907 -0.831649 0.118943 0 255 0
-0.679605 -1.153683 -0.182459 0 255 0
-1.213028 -1.700669 0.613322 0 255 0
-0.980823 -1.163031 0.396247 0 255 0
-1.451337 -1.118100 0.080415 0 255 0
-1.238038 -1.211252 0.096256 0 255 0
-0.787150 0.077520 0.444118 0 255 0
-1.112970 -0.688871 0.578734 0 255 0
-1.230032 -1.136756 0.250724 255 0 0
-1.025616 -0.897405 0.419910 0 255 0
-1.070014 -0.530193 0.193217 255 0 0
-1.320046 -2.123644 0.086117 0 255 0
-1.402850 -0.071871 0.365664 0 255 0
-1.588628 -0.419971 0.301921 255 0 0
-1.138156 -0.356403 0.206506 255 0 0
-1.384699 -1.799314 0.151180 0 255 0
-1.601192 -0.750540 -0.016441 0 255 0
-1.086066 -0.760510 1.062066 0 255 0
-1.539886 -0.670201 0.587975 0 255 0
-1.449800 -1.298103 0.422716 0 255 0
-0.989707 -1.833628 0.463659 0 255 0
-0.758912 -0.360023 0.249519 255 0 0
-0.959727 -0.558938 0.564733 0 255 0
-1.528075 -1.250573 0.142281 0 255 0
-1.601628 -0.657691 0.509994 0 255 0
-1.147511 -1.564332 0.436459 0 255 0
-1.092812 -1.324261 0.146442 0 255 0
