ply
format ascii 1.0
element vertex 100
property float x
property float y
property float z
property uchar red
property uchar green
property uchar blue
end_header
1.007573 -1.045178 0.677580 255 0 0
1.136068 -0.565456 0.581457 255 0 0
1.029060 -0.489423 0.772235 255 0 0
0.944814 -0.465078 0.804530 255 0 0
1.039908 -0.804506 0.612046 255 0 0
1.117191 -0.759722 0.734865 255 0 0
0.974073 -0.384313 0.756077 0 255 0
1.258424 -0.638388 0.635511 255 0 0
0.886451 -1.040763 0.675691 255 0 0
0.953059 -0.925972 0.719104 255 0 0
1.034102 -1.237492 0.634066 255 0 0
0.937070 -0.717498 0.653458 255 0 0
0.968114 -0.646187 0.985511 255 0 0
1.120782 -0.624870 0.748128 255 0 0
0.910173 -1.441766 0.873158 255 0 0
1.084921 -0.723618 0.843728 255 0 0
0.893424 -0.537754 0.899356 255 0 0
0.918128 -1.138795 0.880225 255 0 0
0.929458 -0.910120 0.851637 255 0 0
0.982044 -1.031464 0.694419 255 0 0
1.123340 -0.670164 0.811491 255 0 0
0.989613 -0.995726 0.746220 255 0 0
0.970253 -1.279399 0.911824 255 0 0
1.157620 -0.516730 0.635817 255 0 0
1.070849 -0.975074 0.629678 255 0 0
1.009125 -1.185274 0.855438 255 0 0
0.878792 -1.513212 0.816571 255 0 0
1.023883 -0.776365 0.803395 255 0 0
0.928377 -0.661001 0.848676 255 0 0
1.011013 -0.510927 0.604641 255 0 0
1.013632 -0.864182 0.885969 255 0 0
0.983825 -1.042721 0.840721 255 0 0
0.916895 -0.758573 0.795720 255 0 0
1.029250 -1.257159 0.819505 255 0 0
1.007138 -1.321280 0.896451 255 0 0
0.975768 -0.440946 0.681732 255 0 0
1.088562 -0.594363 0.825859 255 0 0
1.111908 -0.867031 0.643238 255 0 0
0.968987 -1.108878 0.630309 255 0 0
0.941858 -1.293093 0.874928 255 0 0
1.127496 -0.828557 0.775146 255 0 0
0.904138 -0.862577 0.828939 255 0 0
1.092069 -0.954104 0.790596 255 0 0
1.061564 -1.137048 0.626411 255 0 0
0.967627 -0.568385 0.762956 255 0 0
0.954579 -0.484609 0.769166 255 0 0
0.973393 -0.983364 0.645799 255 0 0
0.948623 -1.318927 0.801464 255 0 0
1.129007 -1.184138 0.690505 255 0 0
1.088460 -0.826545 0.726109 255 0 0
0.843220 -1.783191 0.655565 0 255 0
1.138109 -0.585156 1.072396 255 0 0
0.811507 -1.261106 1.024413 0 255 0
1.314491 -0.818906 0.873569 0 255 0
1.715756 -0.755464 1.005198 0 255 0
0.714023 -0.635644 0.978782 0 255 0
1.500765 -1.420703 0.482733 0 255 0
1.107771 -1.197444 0.825870 255 0 0
1.296984 -1.181061 0.718715 0 255 0
1.160976 -1.929012 0.895857 0 255 0
1.549258 -0.346407 1.090494 0 255 0
0.634613 -1.132554 1.174115 0 255 0
0.862256 -0.627616 0.350304 0 255 0
0.923625 -0.594475 1.175217 255 0 0
-0.034908 -0.915025 -0.679134 0 255 0
1.400613 -0.996607 0.943469 0 255 0
1.333286 -0.465666 0.434780 0 255 0
1.320871 -0.815249 1.098725 0 255 0
0.489640 -0.633386 0.606468 0 255 0
1.298388 -0.260963 0.860266 0 255 0
0.746934 -0.291893 0.597306 0 255 0
1.134580 -0.668252 1.064489 255 0 0
1.034753 -1.764731 0.823362 255 0 0
0.807772 -0.850324 0.369114 0 255 0
1.661585 -0.371879 0.680680 0 255 0
0.804895 -0.644329 1.209203 0 255 0
0.950888 -1.574176 1.179688 0 255 0
1.489506 -1.530644 0.639172 0 255 0
0.920385 -0.399195 0.896919 0 255 0
1.136755 -0.412318 0.632298 0 255 0
1.169148 -1.130462 0.471227 0 255 0
0.752260 -1.228337 0.804538 0 255 0
0.625178 -1.616326 0.747214 0 255 0
1.311593 -0.982129 0.788646 0 255 0
0.847110 -0.655638 0.930259 0 255 0
1.074906 -1.730631 0.670348 0 255 0
1.014771 -1.482708 0.666358 255 0 0
1.124026 -0.777274 0.892234 255 0 0
0.601964 -0.934683 0.557841 0 255 0
1.079142 -0.886838 1.289728 255 0 0
1.230553 -1.229383 1.045243 0 255 0
0.761728 -0.610785 0.860227 0 255 0
1.567662 -0.610623 0.936100 0 255 0
1.474260 -1.243110 0.903172 0 255 0
1.071490 -0.645032 1.170111 255 0 0
0.554913 -0.558033 0.771841 0 255 0
1.179924 -0.305478 0.862827 0 255 0
1.199819 -0.609219 1.037472 255 0 0
1.099892 -1.709231 0.138919 0 255 0
0.861620 -0.825423 0.457631 0 255 0
