ply
format ascii 1.0
element vertex 100
property float x
property float y
property float z
property uchar red
property uchar green
property uchar blue
end_header
1.185146 -0.215762 -1.219927 255 0 0
1.247628 -0.333298 -1.332577 255 0 0
1.027047 -0.632029 -1.442291 0 255 0
1.069274 -0.526903 -1.484733 0 255 0
1.380232 -0.501821 -1.276377 255 0 0
1.220630 -0.685569 -1.405140 0 255 0
1.366614 -0.518203 -1.437594 0 255 0
1.373467 -0.391571 -1.188469 255 0 0
1.013993 0.071995 -1.201238 255 0 0
1.141598 -0.129021 -1.235279 255 0 0
1.041254 -0.609053 -1.425658 0 255 0
1.350627 -0.479111 -1.099874 255 0 0
1.448100 -0.343610 -1.326573 0 255 0
1.239989 -0.510594 -1.146660 255 0 0
1.258659 -0.518278 -1.360425 255 0 0
1.121270 -0.238067 -1.059141 255 0 0
1.474079 -0.484962 -1.356357 255 0 0
1.221427 -0.589476 -1.432009 0 255 0
1.028187 -0.525276 -1.409310 0 255 0
1.066708 -0.341425 -1.314343 0 255 0
1.055410 -0.253902 -1.347880 0 255 0
1.518153 -0.477593 -1.276096 255 0 0
1.140750 -0.229899 -1.353278 255 0 0
1.362477 -0.549951 -1.133263 255 0 0
1.146142 -0.101397 -1.304878 255 0 0
1.350651 -0.501750 -1.330485 255 0 0
1.083134 -0.453038 -1.333906 255 0 0
1.212982 -0.231710 -1.262104 255 0 0
1.259209 -0.664105 -1.006750 255 0 0
1.413658 -0.486298 -1.354786 255 0 0
1.309483 -0.397095 -1.324236 255 0 0
1.199573 -0.152778 -1.365345 0 255 0
1.349767 -0.303153 -1.303165 255 0 0
1.403341 -0.319875 -1.310196 255 0 0
1.312807 -0.382438 -1.326238 255 0 0
1.350452 -0.284488 -1.340009 255 0 0
1.070600 -0.436302 -1.042913 255 0 0
1.299106 -0.671067 -1.062129 255 0 0
1.420640 -0.486636 -1.155861 255 0 0
1.500380 -0.451573 -1.260214 255 0 0
1.493907 -0.508340 -1.156838 255 0 0
0.912440 -0.628194 -1.069183 0 255 0
0.884634 0.058570 -1.290102 0 255 0
1.038288 -0.618520 -1.383163 0 255 0
0.917366 -0.485767 -1.536864 0 255 0
0.984486 -0.268685 -1.030148 0 255 0
1.445804 -0.792551 -1.147611 0 255 0
1.183533 -0.310067 -1.000100 255 0 0
0.945260 -1.105821 -1.162897 0 255 0
0.868898 -0.161905 -1.281640 0 255 0
0.724899 -0.692908 -1.145651 0 255 0
1.246790 -0.100600 -1.426351 0 255 0
1.210560 -0.646727 -1.568630 0 255 0
0.937738 -1.278477 -1.383986 0 255 0
1.019739 -1.131528 -1.156091 0 255 0
0.913829 -0.894096 -1.109147 0 255 0
1.718013 -0.245483 -1.000122 0 255 0
0.757004 -0.600018 -1.306783 0 255 0
1.356958 -0.474103 -1.536453 0 255 0
0.678230 -0.565552 -1.218147 0 255 0
0.705377 -0.432467 -1.000412 0 255 0
0.990925 -0.818833 -1.511083 0 255 0
1.107982 -0.567674 -1.278554 255 0 0
1.864810 -0.217994 -1.366773 0 255 0
1.409199 -0.965240 -1.296849 0 255 0
1.506983 -0.657970 -1.168476 0 255 0
0.979109 -0.619075 -0.875220 0 255 0
1.859034 -0.423437 -1.498845 0 255 0
1.143628 -0.671086 -1.030852 255 0 0
1.205553 -0.274460 -0.785579 0 255 0
1.153435 -0.153467 -1.455684 0 255 0
1.061792 -0.157624 -1.072748 255 0 0
1.346619 -0.321001 -1.108157 255 0 0
0.976349 -0.150624 -1.234210 0 255 0
1.621120 -1.074129 -1.195103 0 255 0
1.186507 -0.620292 -1.084154 255 0 0
1.201184 -0.316731 -1.740289 0 255 0
1.117456 -0.900963 -1.277241 0 255 0
0.487208 -0.141189 -1.091706 0 255 0
1.043360 -0.133664 -1.181020 0 255 0
1.810347 -0.564104 -0.575933 0 255 0
1.675681 0.369613 -1.014977 0 255 0
1.235163 -0.636712 -1.381222 255 0 0
1.376361 -0.128468 -1.597872 0 255 0
1.156726 -0.365589 -1.414215 0 255 0
1.431178 -0.231614 -0.979736 0 255 0
1.192994 -0.163123 -1.495984 0 255 0
1.365789 -0.730207 -1.214620 255 0 0
1.195059 -0.313468 -0.879737 0 255 0
1.378092 -0.251850 -1.324345 0 255 0
1.539149 -0.736259 -1.503496 0 255 0
1.166163 -0.210452 -0.997764 255 0 0
0.861737 0.062171 -0.988333 0 255 0
1.002533 -0.279420 -0.835558 0 255 0
1.245643 -0.047653 -1.570461 0 255 0
1.147332 -0.660062 -1.151729 255 0 0
1.158166 0.232253 -1.348430 0 255 0
0.962818 -0.373741 -1.130006 0 255 0
0.708519 -0.084568 -1.341157 0 255 0
1.070675 0.108476 -1.354858 0 255 0
