ply
format ascii 1.0
element vertex 100
property float x
property float y
property float z
property uchar red
property uchar green
property uchar blue
end_header
-1.514106 -1.094595 -1.173457 255 0 0
-1.590366 -0.591274 -1.257967 255 0 0
-1.715108 -1.168174 -1.258034 255 0 0
-1.713140 -0.838210 -1.352968 255 0 0
-1.519987 -1.047091 -1.243181 255 0 0
-1.690459 -0.320823 -1.151786 0 255 0
-1.584982 -0.598675 -1.297229 255 0 0
-1.645482 -0.889571 -1.148473 255 0 0
-1.800925 -0.894831 -1.218857 255 0 0
-1.516957 -1.542904 -1.095835 255 0 0
-1.551900 -1.192720 -1.351857 255 0 0
-1.312791 -0.652240 -1.547988 255 0 0
-1.736657 -0.183144 -1.236618 0 255 0
-1.713930 -0.550994 -1.329103 255 0 0
-1.632940 -0.488390 -1.114625 255 0 0
-1.510676 -0.861611 -1.199284 255 0 0
-1.478923 -1.038958 -1.306577 255 0 0
-1.799729 -0.587809 -1.168425 255 0 0
-1.580281 -0.949939 -1.239550 255 0 0
-1.655661 -1.017335 -1.294293 255 0 0
-1.843863 -0.495385 -1.217459 255 0 0
-1.637436 -0.423712 -1.157677 255 0 0
-1.747171 -0.377078 -1.123166 255 0 0
-1.742289 -0.735807 -1.180567 255 0 0
-1.705021 -0.832260 -1.247378 255 0 0
-1.478636 -0.370814 -1.184069 255 0 0
-1.528398 -1.282708 -1.229087 255 0 0
-1.647458 -0.690842 -1.183562 255 0 0
-1.511284 -0.511430 -1.283778 255 0 0
-1.479357 -1.534089 -1.131510 255 0 0
-1.740734 -0.735910 -1.257904 255 0 0
-1.549667 -0.772072 -1.231140 255 0 0
-1.493170 -0.616691 -1.209687 255 0 0
-1.766833 -0.418662 -1.221060 255 0 0
-1.692445 -1.566057 -1.240333 255 0 0
-1.598521 -0.471813 -1.268765 255 0 0
-1.703558 -1.452846 -1.299140 255 0 0
-1.552712 -0.757533 -1.145444 255 0 0
-1.687186 -0.951453 -1.157814 255 0 0
-1.531396 -1.029746 -1.137086 0 255 0
-1.631869 -0.839431 -1.160555 255 0 0
-1.838449 -0.492968 -1.100059 255 0 0
-1.749254 -1.424155 -1.532405 0 255 0
-0.406010 0.321412 0.900650 0 255 0
-2.052684 -0.677108 -1.029444 0 255 0
-1.866738 -0.458867 -1.342624 255 0 0
-1.692971 -1.306035 -1.399433 0 255 0
-1.694625 -1.486324 -1.521490 0 255 0
-2.479998 -1.029603 -0.992730 0 255 0
-1.517805 -1.800222 -1.016994 0 255 0
-1.505408 -1.841233 -0.850384 0 255 0
-1.537251 -0.836812 -1.470819 0 255 0
-1.499202 -1.668456 -1.448742 0 255 0
-1.224039 -1.004577 -1.244946 255 0 0
-1.153133 -1.805562 -0.891142 255 0 0
-1.678996 -0.204017 -1.534315 0 255 0
-1.582437 -0.407464 -1.385486 0 255 0
-1.485288 -0.490936 -1.831126 0 255 0
-1.700971 -1.933132 -1.440351 255 0 0
-1.809915 -0.750379 -0.820497 0 255 0
-1.516873 -1.063564 -1.428644 0 255 0
-1.831310 0.267914 -1.407896 0 255 0
-1.872307 -1.025382 -1.235207 255 0 0
-1.722231 -1.631633 -0.835563 0 255 0
-1.999089 -1.020488 -1.458077 0 255 0
-1.729581 -0.184701 -1.137058 0 255 0
-1.659806 -0.184482 -1.202808 0 255 0
0.750960 -0.348565 -0.371120 0 255 0
-1.440006 -0.584902 -1.390402 255 0 0
-1.922283 -1.581808 -1.226786 0 255 0
-1.381456 -1.789107 -0.626454 0 255 0
-1.673613 -1.672958 -1.169771 0 255 0
-1.318244 -0.301927 -1.228778 255 0 0
-1.879864 -0.661787 -1.096652 0 255 0
-2.031830 -0.685975 -0.705997 0 255 0
-1.454542 -0.544263 -0.753286 0 255 0
-1.735960 -1.654519 -1.427991 0 255 0
-1.849256 -1.361311 -1.590809 0 255 0
-1.480914 -0.502830 -1.487250 0 255 0
-2.057787 -1.402441 -1.505212 0 255 0
-1.777258 -1.817430 -1.414890 0 255 0
-1.802398 -0.099008 -1.561695 0 255 0
-1.696747 0.031614 -1.142365 0 255 0
-1.523542 -1.205354 -1.436613 0 255 0
-1.487614 -0.850066 -1.644388 0 255 0
-1.650540 -0.291384 -1.295996 255 0 0
-0.942370 -1.004403 -1.133132 255 0 0
-1.478499 -1.518202 -1.379329 0 255 0
0.638421 -0.777016 -0.523951 0 255 0
-1.448172 -0.802485 -1.712304 0 255 0
-1.639634 -1.896643 -0.923864 0 255 0
-1.514316 -1.733027 -1.159471 0 255 0
-1.052576 -0.815771 -1.866380 0 255 0
-1.430296 -1.494166 -1.135024 255 0 0
-1.533145 -0.222763 -0.784297 0 255 0
-2.256486 -0.674669 -1.156207 255 0 0
-0.143267 0.922791 -0.302540 0 255 0
-1.495921 -1.647722 -1.364183 0 255 0
-1.400791 -0.234185 -1.267453 255 0 0
-1.869160 -1.454725 -0.799392 0 255 0
