ply
format ascii 1.0
element vertex 500
property float x
property float y
property float z
property uchar red
property uchar green
property uchar blue
end_header
1.267985 -0.430617 -0.083442 255 0 0
1.091135 -1.339032 -0.054533 255 0 0
1.389943 -0.689129 -0.182556 255 0 0
1.290697 -0.745151 -0.121154 255 0 0
1.224715 -0.545817 0.000997 255 0 0
1.153137 -0.455364 -0.094052 255 0 0
1.354008 -1.393547 -0.071413 255 0 0
1.303418 -1.019320 -0.140961 255 0 0
1.224967 -0.570139 -0.073418 255 0 0
1.153127 -0.863090 -0.181533 255 0 0
1.258217 -1.214408 -0.131590 255 0 0
1.224604 -0.446063 -0.134702 255 0 0
1.238893 -0.755556 -0.059358 255 0 0
1.239319 -1.150531 -0.031621 255 0 0
1.296843 -1.265154 -0.106451 255 0 0
1.180386 -0.869375 -0.170855 255 0 0
1.320060 -1.546175 -0.219339 255 0 0
1.181174 -0.836614 -0.236328 255 0 0
1.053812 -0.868690 -0.210516 255 0 0
1.094796 -0.759693 -0.151255 255 0 0
1.229531 -0.573298 -0.001946 255 0 0
1.122554 -0.823923 -0.181896 255 0 0
1.128710 -0.809432 -0.107031 255 0 0
1.022908 -1.016709 -0.099048 255 0 0
1.090669 -0.824028 -0.054910 255 0 0
1.289563 -0.964036 -0.255445 255 0 0
1.299132 -0.601696 -0.146776 255 0 0
1.283798 -0.448396 -0.127430 255 0 0
1.173879 -0.588268 -0.013001 255 0 0
1.197329 -0.893605 -0.264344 255 0 0
1.084085 -1.207903 0.032226 255 0 0
1.091638 -0.547817 -0.157827 255 0 0
1.023923 -1.500783 -0.167173 255 0 0
1.260310 -1.184779 -0.118954 255 0 0
1.146772 -0.473776 -0.143810 255 0 0
1.146337 -0.446856 -0.138289 255 0 0
1.144990 -0.760329 -0.100994 255 0 0
1.107295 -0.875817 -0.146895 255 0 0
1.090621 -1.301980 -0.026017 255 0 0
1.075154 -1.461583 -0.087491 255 0 0
1.362175 -1.121906 -0.099194 255 0 0
1.367482 -0.679263 -0.214614 255 0 0
1.075049 -0.523173 -0.196639 255 0 0
1.298778 -0.864580 -0.061813 255 0 0
1.362531 -0.901250 -0.117200 255 0 0
0.984817 -0.526404 -0.125298 255 0 0
1.272117 -0.696192 -0.129632 255 0 0
1.298393 -1.175959 -0.016715 255 0 0
1.047091 -0.606438 -0.100671 255 0 0
1.209188 -0.271158 -0.001660 255 0 0
1.052903 -1.048188 -0.133612 255 0 0
1.275198 -1.131642 -0.068903 255 0 0
1.211983 -0.992370 -0.083536 255 0 0
1.152292 -0.785908 -0.182258 255 0 0
1.109691 -0.895127 -0.176523 255 0 0
1.125947 -0.923188 -0.132115 255 0 0
1.363319 -1.256924 -0.058331 255 0 0
1.144862 -1.027173 -0.234819 255 0 0
1.055804 -1.339671 0.043105 255 0 0
1.083422 -1.068547 -0.171585 255 0 0
1.352730 -1.534271 -0.218979 255 0 0
1.270467 -1.249972 -0.099024 255 0 0
1.212300 -0.955843 -0.199762 255 0 0
1.134302 -0.887889 -0.186040 255 0 0
1.142169 -0.971827 -0.136041 255 0 0
0.936016 -0.856157 -0.062717 255 0 0
0.993186 -1.075843 -0.105805 255 0 0
1.178726 -0.556935 -0.146561 255 0 0
1.382662 -0.639939 -0.226296 0 255 0
1.303425 -0.671464 -0.148148 255 0 0
1.442748 -0.986299 -0.050664 255 0 0
1.061163 -0.437068 -0.095335 255 0 0
1.272246 -1.449565 -0.173197 255 0 0
1.283428 -0.995013 -0.088294 255 0 0
1.260977 -0.455942 -0.109648 255 0 0
1.283753 -0.683980 -0.143591 255 0 0
1.132406 -1.022437 -0.096771 255 0 0
1.152692 -0.356727 0.021154 255 0 0
1.361525 -1.259440 -0.057422 255 0 0
1.121936 -1.193872 0.019826 255 0 0
1.315880 -1.049092 -0.068632 255 0 0
1.166372 -0.632877 -0.152753 255 0 0
1.043874 -0.823675 -0.195453 255 0 0
0.997600 -1.384596 -0.017706 255 0 0
1.268323 -0.605859 -0.031897 255 0 0
1.194556 -0.275793 0.040894 255 0 0
1.004753 -1.145883 -0.039136 255 0 0
1.245623 -1.198053 -0.108972 255 0 0
1.216377 -0.627130 -0.050147 255 0 0
1.168601 -1.017300 -0.176130 255 0 0
1.020666 -1.354183 -0.054540 255 0 0
1.178039 -0.548758 -0.180023 255 0 0
1.034293 -0.611156 -0.135230 255 0 0
1.126509 -0.957388 -0.204582 255 0 0
1.136334 -0.560545 -0.060379 255 0 0
1.226188 -0.922239 -0.063582 255 0 0
1.075976 -1.223207 -0.057796 255 0 0
1.241573 -0.761284 -0.028898 255 0 0
1.163760 -0.532381 -0.131232 255 0 0
1.043633 -1.068712 -0.117237 255 0 0
1.320591 -0.807719 -0.150093 255 0 0
1.296327 -0.577474 -0.085798 255 0 0
1.341642 -1.564391 -0.177278 255 0 0
1.156477 -0.452341 -0.125310 255 0 0
1.117489 -0.431988 -0.125082 255 0 0
1.117478 -0.528844 -0.166172 255 0 0
1.194298 -0.689641 -0.127664 255 0 0
1.251218 -0.991228 -0.235589 255 0 0
1.302746 -0.669460 -0.146153 255 0 0
1.083575 -0.966422 -0.109996 255 0 0
1.007253 -1.109002 -0.088432 255 0 0
1.203646 -0.920998 -0.153573 255 0 0
1.100503 -0.427281 -0.052109 255 0 0
1.193123 -0.941989 -0.158391 255 0 0
1.130126 -1.155195 -0.040763 255 0 0
1.269932 -1.086503 -0.007149 255 0 0
1.021263 -0.958998 -0.220469 255 0 0
1.090943 -0.406350 -0.123170 255 0 0
1.150071 -0.686350 -0.013617 255 0 0
1.244750 -0.719383 -0.129568 255 0 0
1.325240 -1.353830 -0.122281 255 0 0
1.107856 -0.522014 -0.035282 255 0 0
1.185298 -0.508580 -0.063197 255 0 0
1.327677 -0.977804 -0.227864 255 0 0
1.129130 -0.905013 -0.111438 255 0 0
1.146070 -0.938864 -0.185839 255 0 0
1.250245 -1.065633 -0.132884 255 0 0
1.002436 -0.590454 -0.095071 255 0 0
1.183888 -0.499719 -0.127794 255 0 0
1.332754 -1.714865 -0.159323 255 0 0
1.241801 -1.179460 -0.047567 255 0 0
1.408020 -0.656654 -0.222704 255 0 0
1.077134 -0.584961 0.001261 255 0 0
1.333979 -0.913676 -0.104903 255 0 0
1.316411 -0.838511 -0.146661 255 0 0
1.083345 -0.994896 -0.199263 255 0 0
0.980021 -0.711416 -0.147838 255 0 0
1.045325 -0.862598 -0.095665 255 0 0
1.139924 -0.639061 -0.137076 255 0 0
1.168928 -0.933216 -0.256385 255 0 0
1.105125 -1.032536 -0.119707 255 0 0
1.063251 -0.544150 -0.030274 255 0 0
1.120007 -0.871188 -0.082912 255 0 0
1.061476 -1.298546 0.017033 255 0 0
1.073220 -1.009341 -0.042926 255 0 0
1.027657 -1.451605 -0.121289 255 0 0
1.340099 -0.502550 -0.166676 255 0 0
1.146271 -0.743963 -0.176532 255 0 0
1.062461 -0.589323 -0.157746 255 0 0
1.147752 -0.564745 -0.105692 255 0 0
1.351662 -1.065421 -0.159394 255 0 0
1.133410 -1.285163 -0.011678 255 0 0
1.285439 -1.515713 -0.219200 255 0 0
1.308619 -0.965170 -0.093563 255 0 0
1.088117 -1.151667 -0.134906 255 0 0
1.219135 -0.802359 -0.127777 255 0 0
1.276845 -1.154142 -0.096146 255 0 0
0.988361 -1.597923 -0.188908 255 0 0
1.329911 -1.416968 -0.100037 255 0 0
1.156755 -1.147562 -0.066901 255 0 0
1.232656 -1.146927 -0.126949 255 0 0
1.248217 -1.150624 -0.036335 255 0 0
1.264371 -0.856197 -0.058636 255 0 0
1.162302 -0.909040 -0.040304 255 0 0
1.006566 -1.487582 -0.142222 255 0 0
0.999442 -0.919859 -0.181770 255 0 0
1.164543 -0.319777 -0.077993 255 0 0
1.172242 -0.871148 -0.009385 255 0 0
1.046369 -0.838901 -0.097014 255 0 0
1.130466 -0.583503 -0.199819 255 0 0
1.136120 -1.036379 -0.209828 255 0 0
1.051956 -1.507753 -0.116363 255 0 0
1.127830 -0.789908 -0.184768 255 0 0
1.159011 -0.556692 -0.195844 255 0 0
1.105275 -0.955600 -0.265003 255 0 0
1.140882 -0.829385 -0.137873 255 0 0
1.183693 -0.202864 -0.092406 255 0 0
1.240627 -0.902957 -0.261830 255 0 0
1.309282 -0.840658 -0.131780 255 0 0
1.297582 -0.814867 -0.104248 255 0 0
1.241684 -1.156103 -0.144668 255 0 0
1.155433 -0.348073 -0.031677 255 0 0
1.008393 -1.133301 -0.103288 255 0 0
1.139273 -0.234446 -0.102729 255 0 0
1.152562 -0.822809 -0.131061 255 0 0
1.171238 -0.929159 -0.164445 255 0 0
1.281368 -0.857142 -0.244620 255 0 0
1.169604 -1.058273 -0.060232 255 0 0
1.322913 -1.067987 -0.155129 255 0 0
1.205158 -0.621173 -0.018444 255 0 0
1.162324 -0.614245 -0.200748 255 0 0
1.215667 -0.902775 -0.210109 255 0 0
1.141818 -0.690555 -0.160580 255 0 0
1.205475 -0.447713 -0.077501 255 0 0
1.293293 -1.174450 -0.164162 255 0 0
1.176415 -0.556754 -0.195987 255 0 0
1.202660 -0.680674 -0.090911 255 0 0
1.168208 -0.884163 -0.043696 255 0 0
1.357409 -0.616817 -0.137335 255 0 0
1.281433 -0.762563 -0.103144 255 0 0
0.981891 -0.596313 -0.130661 255 0 0
1.144621 -1.000447 -0.104852 255 0 0
1.166514 -1.024512 -0.203834 255 0 0
1.230650 -1.038503 -0.093420 255 0 0
0.937726 -1.699608 -0.107048 255 0 0
1.060120 -1.151826 0.106137 0 255 0
1.042211 -0.592539 0.312055 0 255 0
1.123991 0.051024 0.341028 0 255 0
1.175256 -1.073625 -0.429840 0 255 0
0.861490 -1.440514 0.018243 0 255 0
0.772551 -1.751523 0.313808 0 255 0
-0.285315 0.005762 0.521439 0 255 0
1.174603 -1.238780 0.019756 255 0 0
1.103187 -2.117825 -0.026104 0 255 0
1.373671 -0.224964 0.060208 255 0 0
0.639819 -0.039903 0.894299 0 255 0
0.997758 -0.141862 -0.286315 0 255 0
1.341151 -0.643665 0.041927 0 255 0
2.023929 -1.477001 0.035409 0 255 0
1.422180 -0.831812 -0.213197 255 0 0
1.294251 -0.776829 -0.416714 0 255 0
0.963815 -0.601802 0.085403 0 255 0
1.162402 -1.059660 -0.177025 255 0 0
1.378141 -1.610458 -0.292706 0 255 0
1.035680 -1.214020 0.074953 0 255 0
1.325878 -0.172142 -0.217949 0 255 0
1.154327 -0.774386 0.214067 0 255 0
0.123505 -0.616567 0.538527 0 255 0
-0.944408 0.393649 -0.786154 0 255 0
1.222151 -1.166790 0.409325 0 255 0
0.912792 -0.098407 -0.070955 0 255 0
0.507093 -0.216670 -0.023773 255 0 0
1.083949 -0.020955 0.209145 0 255 0
0.711331 -1.631366 0.242523 0 255 0
0.480609 -1.254780 -0.184007 0 255 0
1.416054 -0.691177 0.187715 0 255 0
0.912097 -0.930841 -0.252399 255 0 0
0.584909 -0.968953 -0.264172 255 0 0
1.208703 -1.015893 -0.854806 0 255 0
1.340997 -1.814453 -0.158909 0 255 0
1.356136 -0.266916 -0.245741 0 255 0
1.303761 -0.773601 -0.002617 255 0 0
1.736882 -0.866993 0.032166 0 255 0
1.575410 -0.386118 0.487528 0 255 0
0.997482 -0.059133 0.448287 0 255 0
1.120652 -1.276579 0.122330 0 255 0
1.224342 -0.489159 0.158558 0 255 0
1.390695 -1.579339 -0.124567 255 0 0
0.937203 -0.706518 -0.052366 255 0 0
0.931240 -1.115657 0.371754 0 255 0
0.929794 -0.402489 -0.396717 0 255 0
1.500850 -0.507653 -0.043880 255 0 0
1.438555 -0.458683 -0.036307 255 0 0
0.638728 -1.088515 0.381461 0 255 0
1.364545 -0.339556 -0.490501 0 255 0
1.479786 -1.181298 -0.002484 255 0 0
1.211090 -0.887171 0.060110 0 255 0
0.644577 -0.954133 0.727749 0 255 0
1.200904 -1.566007 -0.308481 0 255 0
1.109470 -1.725772 -0.323766 0 255 0
1.913620 -1.130022 -0.079033 255 0 0
0.558169 -0.870255 -0.137355 255 0 0
1.113737 -0.006126 -0.062767 0 255 0
-0.247618 0.298830 0.024394 0 255 0
1.299846 -0.463017 -0.033111 255 0 0
1.016954 -0.440981 0.168596 0 255 0
1.235528 -1.603247 -0.150422 255 0 0
1.579120 -0.470398 0.310214 0 255 0
1.263584 -0.501282 -0.260281 0 255 0
0.998487 0.463123 0.357758 0 255 0
1.628609 -1.490311 0.055145 0 255 0
0.890951 -0.931061 -0.199767 255 0 0
1.038818 -1.172315 -0.203514 0 255 0
1.460686 -0.521102 0.074710 0 255 0
1.044458 -1.739226 0.081534 0 255 0
1.293820 -0.115841 -0.281909 0 255 0
1.542820 -1.324518 0.232655 0 255 0
1.211565 -1.106417 -0.523885 0 255 0
1.325594 -0.151806 -0.080660 255 0 0
1.049852 -1.349027 -0.135002 255 0 0
1.064984 -1.054330 -0.215126 255 0 0
-0.841394 -0.696961 -0.644586 0 255 0
-0.607286 -0.507966 0.944071 0 255 0
1.326306 -0.383358 -0.085135 255 0 0
0.931084 -0.469943 -0.329826 0 255 0
0.991252 -1.535454 -0.022790 0 255 0
0.711408 -1.107239 0.030361 255 0 0
-0.563699 -0.945969 0.145389 0 255 0
0.926138 -0.476830 -0.388924 0 255 0
0.219439 -0.918768 0.084995 0 255 0
1.250398 -1.689571 -0.192149 255 0 0
0.619041 -1.530406 0.284850 0 255 0
-0.517767 0.659122 0.553991 0 255 0
0.810203 -1.644386 -0.145489 255 0 0
1.368410 -1.074540 0.292983 0 255 0
1.587611 -0.890224 0.037346 0 255 0
1.327795 -1.040535 -0.374540 0 255 0
1.651737 -1.016912 -0.186598 255 0 0
1.320927 -0.365827 0.275216 0 255 0
1.131070 -0.680541 -0.226940 255 0 0
1.281492 -0.916910 -0.021212 255 0 0
1.045759 -0.895029 0.121151 0 255 0
1.159925 -1.061177 0.011206 255 0 0
1.360709 -1.681632 -0.042302 0 255 0
1.192586 -0.522532 -0.307755 0 255 0
1.090541 -0.453946 0.049043 0 255 0
1.536962 -1.292853 -0.117270 0 255 0
1.493403 -0.379233 0.263641 0 255 0
1.047351 -1.532043 0.148927 0 255 0
1.614992 -0.599276 -0.171982 255 0 0
1.437831 -1.103982 -0.021280 255 0 0
-0.638279 0.705679 0.683039 0 255 0
0.968240 -1.334510 -0.399194 0 255 0
1.176485 -0.596821 0.035455 0 255 0
0.993823 -0.714357 -0.083391 255 0 0
1.417866 -1.805203 -0.387462 0 255 0
1.195832 -1.679311 0.114639 0 255 0
1.219602 -1.110745 -0.038513 255 0 0
1.145422 -0.768174 0.044680 0 255 0
0.706022 -0.704376 -0.598916 0 255 0
0.952676 -0.855509 -0.220393 255 0 0
1.401952 0.334670 0.098085 0 255 0
0.827596 -0.990197 0.171184 0 255 0
1.483774 -1.128294 -0.457058 0 255 0
1.049572 -0.408028 -0.049347 255 0 0
-0.780901 -0.243224 0.282103 0 255 0
1.426982 -1.724114 -0.176518 255 0 0
1.429507 -0.593921 -0.339613 0 255 0
0.673642 -1.147518 -0.116229 255 0 0
0.846192 -0.511325 0.258566 0 255 0
0.186702 0.168487 -0.903177 0 255 0
0.981521 -2.010397 -0.214779 0 255 0
1.409450 -1.101352 0.045663 255 0 0
0.947712 -1.024784 0.263840 0 255 0
1.274433 -1.313198 -0.277155 0 255 0
1.338612 -0.353930 -0.089102 255 0 0
1.338397 -0.651969 -0.105863 255 0 0
0.861217 -0.288362 0.128661 0 255 0
1.177002 -1.077580 -0.340761 0 255 0
1.328879 -0.728610 0.320080 0 255 0
1.575111 -1.712942 -0.406775 0 255 0
1.438993 -0.741595 -0.421541 0 255 0
0.654024 -1.778003 -0.095937 0 255 0
1.549817 -0.753286 -0.597595 0 255 0
0.974621 -0.453516 0.367309 0 255 0
0.700226 -1.305817 0.215032 0 255 0
1.075642 -0.015281 -0.232047 0 255 0
1.082358 -1.081337 -0.195663 255 0 0
1.390883 -0.694951 0.078968 0 255 0
1.320591 -1.076858 0.043249 255 0 0
1.157078 -1.749018 -0.182744 0 255 0
1.658357 -0.785138 -0.195617 255 0 0
1.262398 -1.160106 -0.344399 0 255 0
1.180492 -1.210084 0.018344 255 0 0
-0.501130 -0.951256 0.051967 255 0 0
1.218914 -0.296141 0.157385 0 255 0
1.024171 -1.636428 -0.384918 0 255 0
1.280779 -0.608884 0.164203 0 255 0
1.221876 -0.839108 0.303141 0 255 0
0.899770 -0.426857 0.180007 0 255 0
0.881092 -0.605513 0.159788 0 255 0
1.378958 -1.045283 0.197772 0 255 0
1.550480 -0.587378 -0.151936 255 0 0
1.496357 -1.087580 -0.067486 255 0 0
1.174264 -1.378943 0.040738 0 255 0
1.471274 -0.238730 -0.153990 0 255 0
1.127453 -1.357805 0.023634 255 0 0
1.278638 -1.181307 0.093578 0 255 0
0.863651 -1.287323 0.171659 0 255 0
1.061720 -0.869838 -0.306484 0 255 0
0.732908 -1.566972 -0.348066 0 255 0
0.653024 -0.825931 0.212652 0 255 0
1.866263 -0.761456 0.010476 0 255 0
-0.225340 -0.736574 0.269934 0 255 0
0.797702 -1.463789 -0.175998 255 0 0
1.804388 -0.663600 -0.042723 255 0 0
1.305510 -0.716808 -0.386932 0 255 0
1.430153 -1.671613 0.401519 0 255 0
1.010252 -1.243220 0.465630 0 255 0
1.545731 -0.899956 -0.168974 255 0 0
1.816873 -1.454042 -0.088434 255 0 0
0.978347 -0.851965 -0.375654 0 255 0
0.964090 -0.255634 -0.015259 255 0 0
1.363075 -1.446641 0.036537 0 255 0
1.096484 -0.318969 -0.316215 0 255 0
1.434296 -0.441818 -0.197920 0 255 0
0.790114 -0.341257 0.046289 255 0 0
1.196105 -1.581959 -0.189191 255 0 0
0.968925 -0.980068 -0.016869 255 0 0
1.319094 -1.331021 0.336859 0 255 0
-0.064838 0.806574 -0.526965 0 255 0
0.860772 -1.956375 -0.096078 0 255 0
1.532886 -1.018040 -0.266602 0 255 0
0.997321 -0.415986 -0.024099 255 0 0
0.669196 -0.881658 0.317770 0 255 0
0.620909 -1.762318 -0.424042 0 255 0
-0.680760 0.324965 -0.569885 0 255 0
0.888564 -0.904657 -0.226832 255 0 0
0.907768 -1.358327 -0.056438 255 0 0
1.477496 -0.700045 -0.336277 0 255 0
1.446400 -0.521775 -0.086218 255 0 0
1.219669 -0.849292 0.005182 0 255 0
1.049263 -0.022551 -0.237683 0 255 0
1.194982 -1.346600 0.145338 0 255 0
0.798486 -1.377993 -0.350880 0 255 0
0.848765 -0.715792 0.025421 0 255 0
1.021992 -1.046039 -0.422591 0 255 0
1.809044 -0.576169 0.097410 0 255 0
1.282209 -1.240511 0.117865 0 255 0
1.312444 -1.029309 0.126182 0 255 0
0.942251 -0.887464 -0.246357 255 0 0
0.334953 0.442835 0.476012 0 255 0
1.502568 -0.806683 -0.134029 255 0 0
1.089632 -1.453493 0.143088 0 255 0
1.326361 -0.494533 -0.216827 0 255 0
1.301515 -1.355208 -0.317036 0 255 0
1.026559 -0.440216 -0.248442 0 255 0
0.515267 -1.027582 -0.436156 0 255 0
0.940696 -0.716919 -0.391351 0 255 0
0.955313 -0.317833 0.244912 0 255 0
0.961861 -1.609298 -0.240182 255 0 0
1.278209 -0.422150 0.026708 0 255 0
0.839142 -0.589820 -0.601550 0 255 0
1.373475 -0.889904 -0.511013 0 255 0
1.177521 -0.704207 0.116901 0 255 0
1.350656 -1.097116 0.211906 0 255 0
0.829615 -1.425058 0.102739 0 255 0
0.915359 -0.825343 -0.025961 255 0 0
1.841598 -0.529413 -0.241179 0 255 0
1.522164 -0.980108 0.073650 0 255 0
1.048199 -0.249669 -0.148165 0 255 0
1.144517 -1.813394 -0.075134 0 255 0
1.105703 -1.757795 -0.107220 0 255 0
1.592352 -1.811940 -0.116340 0 255 0
1.563808 -1.736047 -0.132728 0 255 0
1.141120 -0.783953 0.069083 0 255 0
1.101421 -1.202527 0.192430 0 255 0
1.717934 -1.065890 -0.180982 255 0 0
0.845977 -0.869358 -0.253600 255 0 0
1.478407 -0.531085 0.009337 0 255 0
1.391430 -1.013539 -0.042709 255 0 0
0.757604 -0.003464 0.596376 0 255 0
1.214337 0.237863 0.081283 0 255 0
1.257352 0.111577 -0.157502 0 255 0
1.433990 -1.375449 -0.109898 255 0 0
1.074729 -1.402116 -0.341139 0 255 0
1.280648 -1.388260 -0.198604 0 255 0
1.295011 -0.894942 0.084545 0 255 0
1.127587 -1.373604 0.041462 0 255 0
0.997055 -0.585969 -0.502857 0 255 0
1.265962 -0.759049 -0.216478 255 0 0
1.315315 -0.315466 -0.192391 0 255 0
1.429524 -1.416649 -0.406360 0 255 0
1.373777 -0.731936 -0.010298 255 0 0
0.775962 -0.382062 0.122230 0 255 0
1.487282 -1.034372 0.199411 0 255 0
1.612780 -0.710201 -0.252533 0 255 0
1.043136 -0.668838 -0.420553 0 255 0
1.178735 -1.491993 -0.521389 0 255 0
1.310230 -0.570292 0.148279 0 255 0
0.932544 -0.522164 -0.105990 255 0 0
0.963356 -1.758967 -0.096719 0 255 0
0.847877 -0.809762 -0.022025 255 0 0
0.975215 -0.527612 0.136150 0 255 0
1.615806 -1.407491 -0.227696 0 255 0
1.589562 -1.495175 -0.811451 0 255 0
1.444381 -1.374296 -0.347699 0 255 0
0.906525 -1.465467 -0.219669 255 0 0
0.949077 -0.789204 0.194083 0 255 0
0.892955 -0.745166 -0.376324 0 255 0
1.245525 -0.387142 -0.171882 0 255 0
1.060167 -1.060098 -0.299714 0 255 0
0.934506 -0.172447 -0.327418 0 255 0
1.347873 -0.984987 -0.475564 0 255 0
1.143586 -0.802010 -0.364457 0 255 0
1.231243 -1.185766 -0.372900 0 255 0
1.360443 -1.695265 -0.377293 0 255 0
1.526677 -1.335720 -0.306191 0 255 0
0.931054 -0.536093 0.062795 0 255 0
1.403727 -1.665794 0.004331 0 255 0
1.174757 -1.435474 -0.400790 0 255 0
0.985414 -0.584591 -0.045217 255 0 0
1.225963 -0.675214 -0.380360 0 255 0
0.818484 -0.748023 -0.085970 255 0 0
1.299092 -1.257372 -0.141551 0 255 0
1.122659 -1.588087 -0.491925 0 255 0
1.106733 -0.138351 -0.370790 0 255 0
0.990931 -1.944483 -0.353415 0 255 0
1.430157 -0.654109 -0.083865 255 0 0
1.183716 -0.561214 -0.373512 0 255 0
1.195158 -0.790489 0.116432 0 255 0
0.955915 -0.304552 -0.404100 0 255 0
1.578611 -0.643697 0.091661 0 255 0
1.214214 -0.499930 -0.252543 0 255 0
1.383459 -1.143983 -0.256665 0 255 0
1.458018 -1.260040 0.001825 255 0 0
0.728785 -0.916640 0.277954 0 255 0
1.199550 -1.392494 -0.299917 0 255 0
1.163673 -1.132331 0.070529 0 255 0
0.982689 -0.426424 0.122326 0 255 0
