ply
format ascii 1.0
element vertex 500
property float x
property float y
property float z
property uchar red
property uchar green
property uchar blue
end_header
-2.765337 -1.257557 -0.979132 255 0 0
-2.874187 -0.883744 -0.880689 255 0 0
-2.759612 -0.580266 -0.825843 255 0 0
-2.751908 -0.386173 -0.902587 255 0 0
-2.827461 -0.467750 -1.025072 255 0 0
-2.778266 -1.137481 -0.717843 255 0 0
-2.794556 -0.753458 -0.941160 255 0 0
-2.707542 -0.494284 -0.904800 255 0 0
-2.865830 -1.002241 -0.821188 255 0 0
-2.812635 -0.449728 -0.778209 255 0 0
-2.789834 -0.448906 -0.908370 255 0 0
-2.797655 -0.981722 -0.732538 255 0 0
-2.846135 -0.586752 -0.786526 255 0 0
-2.675513 -0.314361 -0.874970 255 0 0
-2.810286 -1.170327 -0.737298 255 0 0
-2.769737 -0.986191 -0.809742 255 0 0
-2.699553 -0.530785 -0.825453 255 0 0
-2.731915 -0.599333 -0.882410 255 0 0
-2.820748 -0.591323 -0.776236 255 0 0
-2.771466 -0.964506 -0.843243 255 0 0
-2.731988 -0.869140 -0.887693 255 0 0
-2.731930 -0.582846 -0.933609 255 0 0
-2.796221 -0.897198 -0.994798 255 0 0
-2.796980 -0.881298 -0.959126 255 0 0
-2.781379 -0.742309 -0.789631 255 0 0
-2.774666 -1.043620 -1.029684 255 0 0
-2.805240 -0.816358 -1.007772 255 0 0
-2.820471 -1.516226 -0.760128 0 255 0
-2.833931 -1.535527 -0.966801 255 0 0
-2.778139 -1.278139 -0.786495 255 0 0
-2.782128 -0.866129 -0.793394 255 0 0
-2.776679 -0.575611 -0.920380 255 0 0
-2.832036 -1.170084 -0.768755 255 0 0
-2.772804 -1.008616 -0.920193 255 0 0
-2.708081 -0.938299 -0.840132 255 0 0
-2.734029 -0.689468 -0.952747 255 0 0
-2.678266 -0.628162 -0.828393 255 0 0
-2.877584 -0.868306 -0.914144 255 0 0
-2.789800 -1.064621 -0.955817 255 0 0
-2.762845 -0.467445 -0.983086 255 0 0
-2.812639 -1.429450 -0.974904 255 0 0
-2.855663 -0.941046 -0.870818 255 0 0
-2.952806 -0.573909 -1.117281 255 0 0
-2.698652 -0.881221 -0.971338 255 0 0
-2.704306 -0.835933 -0.849965 255 0 0
-2.693547 -0.668514 -0.839213 255 0 0
-2.749477 -0.330070 -0.885717 255 0 0
-2.760942 -0.490118 -0.746711 255 0 0
-2.844192 -1.474084 -0.934279 255 0 0
-2.785759 -0.556043 -0.939899 255 0 0
-2.782128 -0.620358 -0.938673 255 0 0
-2.805441 -0.431394 -1.004630 255 0 0
-2.778628 -0.995186 -0.710792 255 0 0
-2.829565 -0.959798 -0.976708 255 0 0
-2.816759 -0.954158 -0.751840 255 0 0
-2.826477 -0.803878 -0.887271 255 0 0
-2.787862 -0.439613 -0.822018 255 0 0
-2.830481 -0.485694 -0.968047 255 0 0
-2.827319 -0.980253 -0.915215 255 0 0
-2.734839 -0.266547 -0.966228 255 0 0
-2.817519 -1.439156 -0.968540 255 0 0
-2.818148 -0.507620 -0.836671 255 0 0
-2.887045 -0.907852 -0.981283 255 0 0
-2.721118 -1.141170 -0.970598 255 0 0
-2.870277 -0.642160 -0.919844 255 0 0
-2.832288 -0.946234 -0.927311 255 0 0
-2.810420 -0.558143 -0.820137 255 0 0
-2.755595 -0.496258 -0.816262 255 0 0
-2.768674 -1.202122 -0.946930 255 0 0
-2.774394 -1.087250 -0.988520 255 0 0
-2.733908 -0.900758 -0.887746 255 0 0
-2.778548 -1.349924 -0.966362 255 0 0
-2.737989 -0.472070 -0.989086 255 0 0
-2.677151 -0.550026 -0.885691 255 0 0
-2.683882 -0.926423 -0.886376 255 0 0
-2.736247 -0.339644 -0.845803 255 0 0
-2.897411 -0.536060 -1.127883 255 0 0
-2.792205 -1.285658 -0.748681 255 0 0
-2.835720 -0.482450 -0.834801 255 0 0
-2.818016 -1.047650 -0.936181 255 0 0
-2.785719 -0.659150 -0.891487 255 0 0
-2.808841 -1.154184 -0.958592 255 0 0
-2.757415 -0.518907 -0.832458 255 0 0
-2.786665 -0.691844 -0.929081 255 0 0
-2.759208 -1.310369 -0.759307 255 0 0
-2.839992 -1.037879 -0.780016 255 0 0
-2.805989 -0.963381 -0.884196 255 0 0
-2.812224 -1.425749 -0.733617 255 0 0
-2.729839 -0.346489 -0.893844 255 0 0
-2.921236 -0.676140 -1.170449 255 0 0
-2.834506 -0.896087 -0.802415 255 0 0
-2.769446 -0.426978 -0.899485 255 0 0
-2.736995 -1.076266 -0.791569 255 0 0
-2.746656 -0.455276 -0.837574 255 0 0
-2.772095 -0.781205 -0.910866 255 0 0
-2.731360 -0.329761 -0.948223 255 0 0
-2.810867 -1.068268 -0.922473 255 0 0
-2.846878 -0.988527 -1.029510 255 0 0
-2.812511 -0.780439 -0.956687 255 0 0
-2.749221 -0.621424 -0.962091 255 0 0
-2.740213 -0.898664 -0.786814 255 0 0
-2.727915 -0.433438 -0.915614 255 0 0
-2.763623 -0.911320 -0.822206 255 0 0
-2.771606 -0.648709 -0.557634 0 255 0
-2.732341 -1.198972 -0.940938 255 0 0
-2.731911 -0.679237 -0.995506 255 0 0
-2.771905 -0.968487 -0.775763 255 0 0
-2.779291 -0.832772 -0.849983 255 0 0
-2.786950 -1.074977 -0.820932 255 0 0
-2.746217 -0.772193 -0.967992 255 0 0
-2.771233 -1.332786 -0.750421 255 0 0
-2.870179 -0.948746 -0.931743 255 0 0
-2.798770 -0.766456 -0.943734 255 0 0
-2.797105 -0.471969 -0.921924 255 0 0
-2.762271 -1.024189 -0.996311 255 0 0
-2.762526 -0.546517 -0.793216 255 0 0
-2.735527 -0.960630 -0.816379 255 0 0
-2.770882 -0.244534 -0.939668 255 0 0
-2.737748 -0.968638 -0.789228 255 0 0
-2.764636 -1.407615 -0.740507 255 0 0
-2.884040 -0.906509 -0.801115 255 0 0
-2.740919 -0.502486 -0.978757 255 0 0
-2.752081 -0.612464 -0.870379 255 0 0
-2.816063 -1.427814 -1.001259 255 0 0
-2.740473 -1.196434 -0.985893 255 0 0
-2.684318 -0.830060 -0.859866 255 0 0
-2.814255 -1.087929 -0.837084 255 0 0
-2.792984 -0.489865 -0.715163 255 0 0
-2.795354 -1.390935 -0.968124 255 0 0
-2.861575 -0.830908 -0.900450 255 0 0
-2.825289 -0.660896 -0.985561 255 0 0
-2.754870 -1.052467 -0.992931 255 0 0
-2.743637 -2.152886 -0.583754 0 255 0
-2.541157 -0.519717 -1.000832 0 255 0
-2.723382 -0.346668 -1.708974 0 255 0
-3.107829 -0.742951 -1.427317 0 255 0
-0.489883 -0.011611 -0.268425 0 255 0
-2.795844 -1.667479 -1.136585 0 255 0
-0.721417 -0.379579 0.599416 0 255 0
-3.345716 -1.089644 -1.175926 0 255 0
-2.769687 -0.614397 -0.537030 0 255 0
-2.744964 -0.702784 -1.324217 0 255 0
-2.864711 -1.069023 -0.777110 255 0 0
-2.784573 -1.705021 -0.773305 0 255 0
-2.710616 -0.713436 -1.268203 0 255 0
-2.693863 -1.193388 -0.609669 0 255 0
-2.739022 -1.526446 -0.881578 0 255 0
-2.819032 -0.971812 -0.380516 0 255 0
-2.689240 -0.719297 -1.117289 0 255 0
-3.316649 -0.761289 -1.249521 0 255 0
-2.631461 -1.283429 -1.243751 0 255 0
-2.313073 -0.991458 -0.560861 0 255 0
-2.520150 -0.992058 -0.820757 0 255 0
-2.964663 -1.885621 -1.122827 0 255 0
-2.913136 -1.916562 -0.771882 0 255 0
-3.097744 -0.533310 -0.533916 0 255 0
-2.645513 -0.973725 -0.968378 255 0 0
-2.935387 -0.735257 -1.133680 0 255 0
-2.304073 -1.402445 -1.155709 0 255 0
-3.018990 -1.625447 -0.700878 0 255 0
-2.904177 -0.685134 -0.972807 0 255 0
-2.667753 -1.146121 -0.758824 0 255 0
-2.720701 -1.608380 -1.193044 0 255 0
-0.970012 0.328111 -0.296391 0 255 0
-2.810906 -1.441416 -0.649648 0 255 0
-2.513427 -0.425070 -0.912520 0 255 0
-3.016275 -1.462013 -1.150801 0 255 0
-2.833638 -0.358461 -0.820715 255 0 0
-2.625319 -1.673565 -0.671263 0 255 0
-2.456926 -0.898654 -0.598164 0 255 0
-2.821708 -0.182471 -0.850749 0 255 0
-0.729045 -0.631037 -0.040149 0 255 0
-2.877113 -0.322477 -0.954448 0 255 0
-2.990290 -0.577167 -0.340570 0 255 0
-2.904401 -0.290839 -0.475896 0 255 0
-2.762905 -0.886225 -0.619050 0 255 0
-2.957246 -0.691390 -1.427045 0 255 0
-2.900937 -0.979093 -0.741371 0 255 0
-3.021889 -0.788850 -0.755022 0 255 0
-2.676451 -0.990965 -0.278597 0 255 0
-3.096314 -1.385198 -1.021108 0 255 0
-2.525865 -1.711196 -1.147114 0 255 0
-2.751235 -1.250959 -1.125850 0 255 0
-2.584273 -1.130966 -1.261787 0 255 0
-2.468337 -0.933598 -0.608311 0 255 0
-2.799587 -1.559190 -1.170768 0 255 0
-2.836622 -1.122817 -1.402599 0 255 0
-3.016006 -1.418143 -0.760115 0 255 0
-2.536318 -0.690458 -1.099224 0 255 0
-2.605817 -1.231755 -0.968244 0 255 0
-2.985083 -1.339609 -1.071871 0 255 0
-2.875274 -1.184675 -0.854244 255 0 0
-2.879007 -1.483124 -0.819007 0 255 0
-2.564898 -0.540353 -0.992326 0 255 0
-2.883950 -0.698982 -0.332967 0 255 0
-2.705983 -0.831524 -1.126079 0 255 0
-0.408641 0.323936 -0.441716 0 255 0
-3.282163 -1.019253 -0.748794 0 255 0
-2.500508 -0.879304 -0.833005 0 255 0
-2.820090 -1.261519 -0.680138 0 255 0
-2.694609 -0.738910 -1.006992 255 0 0
-2.586789 -0.514333 -0.985499 0 255 0
-2.972869 -0.950802 -0.417262 0 255 0
-2.888138 -0.616975 -0.854873 255 0 0
-2.746445 -1.822223 -0.720582 0 255 0
-2.722441 -0.272885 -1.180519 0 255 0
-2.741248 -0.411768 -1.162045 0 255 0
-2.552855 -1.693916 -0.810559 0 255 0
-2.946650 -1.138289 -0.814337 0 255 0
-3.033695 -1.414987 -1.020539 0 255 0
-2.692048 -1.400706 -1.148833 0 255 0
-2.965586 -0.908600 -0.902172 0 255 0
-0.553822 0.747771 -0.475118 0 255 0
-2.760988 -0.873447 -0.642415 0 255 0
-3.391469 -0.209672 -0.927183 0 255 0
-3.108523 -0.482399 -1.287624 0 255 0
-2.882138 -0.408583 -0.882804 255 0 0
-2.431107 -1.087291 -0.752128 0 255 0
-3.022012 -1.509262 -0.713387 0 255 0
-3.036855 -1.401702 -0.846021 0 255 0
-2.868443 -0.659647 -0.484843 0 255 0
-2.700724 -0.921024 -0.698479 0 255 0
-2.639608 -0.648519 -0.720871 255 0 0
-2.826918 -0.771310 -0.235832 0 255 0
-2.080727 -0.671182 -0.945901 0 255 0
-2.547228 -0.903018 -0.568286 0 255 0
-2.420850 -1.225818 -0.583462 0 255 0
-2.933179 -0.971385 -1.002008 0 255 0
-2.999331 -0.354554 -1.009328 0 255 0
-2.697261 -0.818661 -1.273337 0 255 0
-2.586622 -0.359274 -0.727095 0 255 0
-2.415895 -1.319776 -0.843487 0 255 0
-2.695170 -0.821002 -1.155241 0 255 0
-2.852225 -1.159861 -0.926303 255 0 0
-2.790783 -0.713444 -0.750707 255 0 0
-2.804478 -1.292187 -1.156102 0 255 0
-2.686702 -0.873904 -1.104915 0 255 0
-2.278266 0.062076 -0.463368 0 255 0
-3.213336 -0.575767 -1.092512 0 255 0
-3.009905 -1.276875 -0.515593 0 255 0
-2.552273 -0.036177 -1.017202 0 255 0
-2.870199 -1.003251 -1.142587 0 255 0
-2.821340 -1.058124 -0.879060 255 0 0
-2.596417 -0.813389 -0.591127 255 0 0
-2.484208 -0.604577 -0.285065 0 255 0
-3.187488 -0.840492 -0.745234 0 255 0
-2.800656 -1.748834 -0.939163 0 255 0
-2.679891 -1.654578 -1.588415 0 255 0
-2.858393 -0.689862 -1.058738 0 255 0
-2.734773 -1.277603 -1.213979 0 255 0
-2.813061 0.098555 -1.075241 0 255 0
-2.695189 -1.043291 -0.094131 0 255 0
-2.726662 -0.728252 -0.430935 0 255 0
-0.350287 -0.043514 0.898321 0 255 0
-2.943074 -0.682494 -0.946550 0 255 0
-2.717174 -0.208505 -0.643833 0 255 0
-2.630198 -1.397508 -0.896470 255 0 0
-2.555709 -0.571053 -1.125066 0 255 0
-2.411933 -1.223014 -0.975488 0 255 0
-2.606291 -1.099963 -0.893519 255 0 0
-2.952620 -1.007470 -0.755422 0 255 0
-2.949445 -0.966587 -0.975974 0 255 0
-2.853570 -0.041122 -0.706513 0 255 0
-2.946167 -1.232516 -1.216941 0 255 0
-2.890716 -0.690154 -1.103346 0 255 0
-2.632197 -1.131703 -1.255526 0 255 0
-2.959410 -0.932545 -0.749599 0 255 0
-2.686223 -0.457396 -0.893559 255 0 0
-2.170122 -1.522086 -0.402474 0 255 0
-3.073813 -1.497160 -1.391662 0 255 0
-2.625566 -0.307871 -0.252438 0 255 0
-2.508568 -0.426387 -0.450030 0 255 0
-2.714851 -0.955519 -1.458715 0 255 0
-2.600981 -1.048798 -0.427975 0 255 0
-0.529323 -0.048764 -0.307637 0 255 0
-3.000453 -1.742070 -0.706166 0 255 0
-2.825461 -0.555011 -1.326483 0 255 0
-2.855073 -1.068347 -1.004267 255 0 0
-2.649713 -0.567744 -1.422883 0 255 0
-3.027544 -1.245093 -0.933954 0 255 0
-2.777288 -1.479377 -1.226810 0 255 0
-2.815103 -0.740288 -0.350800 0 255 0
-2.762063 -0.795125 -0.382467 0 255 0
-2.641965 -1.668696 -1.670407 0 255 0
-2.901275 -0.097009 -0.940694 0 255 0
-2.585952 -0.555569 -1.538977 0 255 0
-2.966013 -0.837557 -0.781756 0 255 0
-3.146829 -1.482744 -1.398062 0 255 0
-2.642905 -1.078886 -1.006735 0 255 0
-2.579564 -1.702362 -0.864613 0 255 0
-2.903998 -0.589047 -0.454354 0 255 0
-2.947022 -1.360958 -0.922312 0 255 0
-2.747300 -0.028665 -1.085984 0 255 0
-2.668609 -0.653913 -0.920124 255 0 0
0.782755 -0.833861 0.323751 0 255 0
-2.589190 -0.713307 -0.870204 0 255 0
-3.097558 -0.660412 -0.157424 0 255 0
-2.806262 -1.623000 -1.078248 0 255 0
-2.650362 -1.693620 -0.764586 255 0 0
-2.733017 -0.823247 -0.746118 0 255 0
-2.959599 -1.334117 -0.785815 0 255 0
-3.046111 -1.327040 -1.181606 0 255 0
-2.847519 -1.336667 -0.847241 0 255 0
-2.910333 -1.128784 -1.343422 0 255 0
-2.655756 -0.868924 -1.137764 0 255 0
-2.235130 -1.123779 -0.432310 0 255 0
-2.715244 -0.617837 -0.198963 0 255 0
-3.113673 -0.727541 -0.524324 0 255 0
-2.832469 -0.062822 -1.338583 0 255 0
-2.809809 -0.675297 -0.418140 0 255 0
-2.720819 -0.593199 -1.052337 255 0 0
-2.997165 -0.393120 -0.867889 0 255 0
-3.078586 -0.579029 -1.520669 0 255 0
-2.853721 -1.627684 -0.495182 0 255 0
-2.886583 -0.445463 -1.096416 0 255 0
-3.039914 -0.756500 -1.132584 0 255 0
-2.593261 -0.681070 -1.236301 0 255 0
-2.675227 -1.328754 -0.503780 0 255 0
-2.479306 -1.060925 -1.013288 0 255 0
-3.050603 -0.691030 -0.590340 0 255 0
-2.651542 -1.402703 -0.437080 0 255 0
-2.890782 -1.808737 -0.963376 0 255 0
-2.819675 -0.651221 -1.107539 0 255 0
-2.916817 -1.127062 -0.963598 0 255 0
-2.972670 -1.237959 -0.849091 0 255 0
-2.440220 -0.606443 -0.402493 0 255 0
-2.868568 -0.407397 -0.590843 0 255 0
-2.855230 -0.895432 -0.532461 0 255 0
-2.599411 -1.103592 -0.709082 0 255 0
-2.992118 -0.213161 -0.816365 0 255 0
-2.648793 -0.497669 -0.760690 0 255 0
-0.625463 0.224175 0.509124 0 255 0
-3.008072 -1.000823 -0.733445 0 255 0
-2.955226 -0.515594 -0.469892 0 255 0
0.631351 -0.224827 -0.257699 0 255 0
-2.491874 -0.320708 -1.039574 0 255 0
-2.561174 0.137184 -1.094270 0 255 0
-2.786228 -1.174619 -0.868737 255 0 0
-2.764760 -1.759299 -1.204433 0 255 0
-2.803593 -0.868173 -1.238654 0 255 0
-2.583809 -0.447153 -0.979733 0 255 0
-2.785748 -1.786538 -0.634267 0 255 0
-0.846438 -0.438212 -0.437978 0 255 0
-2.957047 -0.561433 -0.648918 0 255 0
-3.143720 -0.276067 -0.780501 0 255 0
-2.882795 -1.417346 -0.919022 255 0 0
-2.733253 -1.553211 -0.762507 255 0 0
-2.699025 -0.896089 -0.493272 0 255 0
-2.631608 -0.561442 -0.467802 0 255 0
0.061019 -0.963259 0.945940 0 255 0
-3.391015 -1.520287 -0.637908 0 255 0
-2.457698 -0.899354 -1.080034 0 255 0
-2.943023 -0.929422 -0.727654 0 255 0
-2.945388 -0.989387 -0.529007 0 255 0
-2.645368 -1.133163 -0.964535 255 0 0
-2.792859 -0.994102 -0.626691 0 255 0
-2.758399 -1.206500 -0.687330 0 255 0
-2.929933 -1.992549 -0.991114 0 255 0
-2.606199 -0.980188 -0.562987 0 255 0
-3.087132 -1.528822 -0.945913 0 255 0
-3.047857 -0.542089 -0.590267 0 255 0
0.234810 -0.244587 -0.962207 0 255 0
-2.594159 -0.897425 -0.799785 0 255 0
-2.709073 -1.715204 -0.751642 0 255 0
-2.656514 -1.119546 -0.579163 0 255 0
-0.404896 0.632213 0.932426 0 255 0
-3.045990 -1.020684 -0.861871 0 255 0
-2.804054 -0.632746 -0.714855 255 0 0
-3.011333 -0.944875 -0.988363 0 255 0
-2.768408 -0.474102 -0.546417 0 255 0
-2.962852 -0.467583 -1.063579 0 255 0
-2.419022 -1.296982 -0.899898 0 255 0
-2.945593 -0.550952 -0.738941 0 255 0
-2.716322 -1.067314 -1.291220 0 255 0
-3.039330 -0.113926 -1.018881 0 255 0
-2.963521 -1.081637 -0.446488 0 255 0
-2.417797 -1.692205 -0.274664 0 255 0
-2.530863 -0.854692 -0.800311 0 255 0
-2.883161 -0.914400 -1.053789 0 255 0
-2.896755 -0.368921 -1.204562 0 255 0
-3.326836 -1.644198 -0.995885 0 255 0
-2.342270 -1.306913 -1.164575 0 255 0
-3.143593 -1.412924 -0.847085 0 255 0
-2.311223 -0.233738 -0.673036 0 255 0
-2.908874 -1.442896 -0.858901 255 0 0
-2.799914 -0.477854 -1.112428 0 255 0
-2.735905 -1.618755 -0.862504 0 255 0
-2.710976 -0.963976 -1.148646 0 255 0
-2.738609 -0.442388 -1.169705 0 255 0
-3.071456 -0.848406 -0.480649 0 255 0
-3.195761 -0.181072 -0.865640 0 255 0
-3.115371 -1.002201 -0.348543 0 255 0
-2.260988 -0.967842 -0.820142 0 255 0
-2.696191 -0.441407 -0.819599 255 0 0
-0.008281 0.505313 0.028909 0 255 0
-3.020023 -1.326664 -0.874546 0 255 0
-2.494089 -1.466859 -0.199795 0 255 0
-2.862232 -1.305043 -1.134294 0 255 0
-2.809135 -1.849024 -0.978947 0 255 0
-2.533211 -0.366809 -0.709454 0 255 0
-3.343531 -0.475067 -1.156789 0 255 0
-3.147002 -0.179145 -0.793636 0 255 0
-2.588143 -0.814007 -0.940046 0 255 0
-2.971265 -0.568006 -1.115495 255 0 0
-3.187367 -1.716825 -1.071866 0 255 0
-2.849471 -1.148957 -1.186143 0 255 0
-2.671412 -1.425831 -0.974966 0 255 0
-2.855175 -1.143758 -0.788678 255 0 0
-2.772303 -0.638915 -0.461998 0 255 0
-3.040351 -0.735735 -0.609113 0 255 0
-2.583718 -0.687777 -0.252794 0 255 0
-2.986926 -0.609936 -0.970273 0 255 0
-2.903049 -0.956393 -0.437220 0 255 0
-2.544409 -0.279624 -1.012194 0 255 0
-2.237813 -0.448563 -0.273947 0 255 0
-2.618146 -1.151102 -0.489370 0 255 0
-2.575686 -0.279051 -1.068976 0 255 0
-2.933375 -0.641122 -0.787163 0 255 0
-3.108911 -0.885958 -0.737635 0 255 0
-2.697433 -0.156386 -1.214474 0 255 0
-2.618684 -1.200571 -1.392037 0 255 0
-2.805350 -0.527030 -0.505004 0 255 0
-2.788327 -0.497277 -0.671871 0 255 0
-2.728728 -0.851842 -0.477489 0 255 0
-2.496448 -0.362804 -1.096861 0 255 0
0.479205 -0.631615 -0.217706 0 255 0
-2.840455 -1.012648 -0.620556 0 255 0
-2.767714 -0.494297 -0.495471 0 255 0
-2.563919 -0.668572 -0.585756 0 255 0
-2.574461 -1.522888 -0.810226 0 255 0
-3.286025 -0.225674 -0.960773 0 255 0
-2.599356 -1.592250 -0.944000 0 255 0
-2.702114 -0.439251 -0.798760 255 0 0
-2.680755 -0.317608 -1.187704 0 255 0
-2.695412 -0.766265 -1.188735 0 255 0
-2.688540 -0.690076 -0.996435 255 0 0
-3.029944 -0.480122 -0.867651 0 255 0
-2.914212 -0.850586 -1.401206 0 255 0
-2.610472 -0.549481 -0.746147 0 255 0
0.306592 0.023686 -0.796228 0 255 0
-2.664696 -1.948999 -1.409092 0 255 0
-2.820553 -0.038882 -0.854310 0 255 0
-3.305765 -0.506037 -1.464709 0 255 0
-2.765613 -0.507652 -1.147699 0 255 0
-2.483910 -1.159025 -1.067706 0 255 0
-2.996143 -1.200848 -1.377399 0 255 0
-2.548788 -1.239123 -0.983947 0 255 0
-2.892358 -0.793939 -0.452561 0 255 0
-3.149799 -0.944168 -0.928339 0 255 0
-2.928730 -0.943339 -0.849208 255 0 0
-2.564216 -1.674885 -0.683194 0 255 0
-2.460078 0.225627 -0.990619 0 255 0
-2.618901 -0.742963 -0.700555 0 255 0
-2.642410 -0.564789 -0.808703 255 0 0
-2.828195 -0.641793 -1.086767 0 255 0
-2.940784 -0.316359 -0.771544 0 255 0
-2.804597 -1.128398 -1.226311 0 255 0
-2.906669 -0.379209 -1.142669 0 255 0
-2.686814 -1.199929 -1.434384 0 255 0
0.290863 0.053918 -0.038014 0 255 0
-2.927941 -0.617354 -0.947849 0 255 0
-2.645923 -0.944324 -1.299330 0 255 0
-2.483738 -1.277856 -0.390868 0 255 0
-2.600579 -0.482057 -0.554059 0 255 0
-2.757524 -1.551846 -1.330046 0 255 0
-2.652671 -1.419870 -0.774924 0 255 0
-2.119218 -1.666600 -0.193338 0 255 0
-2.868977 -0.443559 -0.807249 255 0 0
-2.717086 -1.047045 -0.916186 255 0 0
-3.026559 -0.935336 -1.135292 0 255 0
-2.583288 -1.440637 -1.334009 0 255 0
-2.980451 -0.927860 -0.489029 0 255 0
-2.476794 -0.365814 -0.987254 0 255 0
-3.269514 -0.367765 -1.460638 0 255 0
-3.098760 -1.297540 -0.660460 0 255 0
-2.724868 -0.638955 -1.365220 0 255 0
-3.116609 -0.991426 -1.352841 0 255 0
-2.795229 -1.743496 -0.629936 0 255 0
-2.461254 -1.565845 -0.990468 0 255 0
-2.209110 -1.169774 -1.117764 0 255 0
-2.921268 -0.366001 -0.302516 0 255 0
-2.662073 -1.366105 -1.260128 0 255 0
0.057825 -0.534672 0.528474 0 255 0
-2.766389 -1.074552 -1.270740 0 255 0
-2.634777 -1.670991 -0.968729 0 255 0
-3.062187 -1.388359 -0.982261 0 255 0
-2.948932 -0.841767 -1.169298 0 255 0
-2.578576 -0.551117 -0.819487 0 255 0
-2.517451 -0.871885 -0.779540 0 255 0
-2.952583 -1.157837 -0.523971 0 255 0
-2.664360 -0.888615 -0.531669 0 255 0
-2.915680 -2.077650 -0.900146 0 255 0
-2.973206 -0.561224 -1.040514 255 0 0
-2.846749 -0.374497 -1.036074 0 255 0
-2.659867 -1.746766 -1.412893 0 255 0
-3.051292 -1.089366 -0.938043 0 255 0
-2.645209 -0.781336 -1.087374 0 255 0
-3.018962 -0.902479 -1.035065 0 255 0
-2.546247 -1.009497 -1.091169 0 255 0
-2.951475 -0.482744 -0.870278 255 0 0
